<?xml version="1.0" encoding="UTF-8"?><svg id="Warstwa_2" xmlns="http://www.w3.org/2000/svg" viewBox="0 0 356.9 308.69"><defs><style>.cls-1{fill:#ffc9b6;}.cls-2,.cls-3,.cls-4{fill:#fff;}.cls-5{fill:#a8bde2;}.cls-6{fill:#96b0d6;}.cls-3{opacity:.4;}.cls-7{opacity:.1;}.cls-7,.cls-8,.cls-9{fill:#4b57aa;}.cls-4,.cls-8{opacity:.3;}.cls-10{fill:#2c2c5b;}.cls-11{fill:#c5d2ef;}.cls-12{fill:#ffb9a4;}.cls-13{fill:#bac9e5;}.cls-14{fill:#ff9906;}.cls-15{fill:#23234c;}.cls-16{fill:#ff9d27;}.cls-17{fill:#ff9201;}.cls-18{fill:#ffbe4a;}.cls-19{fill:#333368;}.cls-20{fill:#ffaf04;}.cls-21{fill:#dce6f9;}.cls-22{fill:#ffb83b;}.cls-23{fill:#5768bc;}.cls-24{fill:#3c4c99;}</style></defs><g id="Layer_1"><g><g><path class="cls-24" d="M243.81,161.94v-2.82s38.95-20.47,38.95-20.47c1.62-.93,4.09-1.04,5.49-.23l17.77,8.08v2.97h-.02c.01,.64-.42,1.31-1.32,1.83l-37.63,21.71c-1.62,.93-4.09,1.04-5.49,.23l-16.82-9.71c-.72-.42-1.02-1-.92-1.59Z"/><path class="cls-23" d="M244.73,160.32l16.82,9.71c1.4,.81,3.87,.71,5.49-.23l37.63-21.71c1.62-.93,1.8-2.36,.39-3.17l-16.83-9.71c-1.4-.81-3.87-.71-5.49,.23l-37.63,21.71c-1.62,.93-1.8,2.36-.39,3.17Z"/><path class="cls-5" d="M276.65,55.76s-2.66,27,.34,47.7c2.3,15.85,8.53,32,8.53,32l-21.46,34.02-18.57-10.91V70.33s31.15-14.56,31.15-14.56Z"/><path class="cls-11" d="M295.22,66.68s-2.66,27,.34,47.7c2.3,15.85,8.53,32,8.53,32l-40.03,23.11V81.24s31.15-14.56,31.15-14.56Z"/><circle class="cls-9" cx="274.61" cy="38.8" r="38.8" transform="translate(-2.68 33.84) rotate(-7.02)"/><g><g><path class="cls-17" d="M235.47,23.25c.69-2.75,1.55-5.31,2.26-7.25,.8-2.16,1.42-3.56,1.42-3.56l15.76-8.74c1.7-.74,3.69-1.06,5.84-.99,3.53,.11,7.47,1.28,11.23,3.45,2.25,1.3,4.42,2.97,6.51,4.87,11.58,10.56,20.16,29.45,20.16,46.09,0,10.36-3.41,16.75-8.71,20.18l-16.37,9.38s-7.72-1.21-12.65-4.05c-14.73-8.5-26.67-31.32-26.67-50.96,0-2.69,.51-5.64,1.21-8.41Z"/><path class="cls-3" d="M235.47,23.25c.69-2.75,1.55-5.31,2.26-7.25l23.03-13.3c3.53,.11,7.47,1.28,11.23,3.45,2.25,1.3,4.42,2.97,6.51,4.87l-32.11,18.54-10.93-6.31Z"/></g><ellipse class="cls-20" cx="256.42" cy="49.51" rx="23.16" ry="40.94" transform="translate(1.09 104.35) rotate(-23.05)"/><g><path class="cls-21" d="M243.13,16.24c-4.5,3.11-7.31,9.54-7.31,18.48,0,17.3,10.52,37.39,23.49,44.88,4.32,2.49,8.36,3.27,11.84,2.56-4.21,2.91-9.9,2.9-16.18-.72-12.97-7.49-23.49-27.58-23.49-44.88,0-11.54,4.68-18.91,11.65-20.32Z"/><path class="cls-11" d="M259.31,79.6c-12.97-7.49-23.49-27.58-23.49-44.88,0-8.94,2.81-15.37,7.31-18.48,3.48-.7,7.52,.07,11.84,2.56,12.97,7.49,23.49,27.58,23.49,44.88,0,8.94-2.81,15.37-7.31,18.48-3.48,.7-7.52-.07-11.84-2.56Z"/></g></g><g><path class="cls-11" d="M78.25,55.32c17.19-1.24,27.3-.25,36.92,.09,5.99,.21,11.8,.17,19.01-.83,8.73-1.21,27.78-5.93,40.22-10.81,39.99-15.69,65.41-28.25,65.41-28.25,4.26-2.09,9.66-1.71,15.54,1.68,2.08,1.2,4.09,2.74,6.02,4.49,10.56,9.6,18.45,26.63,18.83,41.89,0,.39,.04,.78,.04,1.17,0,9.32-2.89,16.06-7.54,19.41,0,0-12.89,9.7-49.22,33.8-11.16,7.41-23.72,18.03-32.13,27.95-12.31,14.51-19.77,28.62-22.89,35.13-1.13,2.36-1.7,3.75-1.7,3.75l-52.33-55.04S76.23,55.46,78.25,55.32Z"/><path class="cls-7" d="M227.62,93.6c16.38-9.3,39.38-22.46,52.57-30.02,0,.39,.04,.78,.04,1.17,0,9.32-2.89,16.06-7.54,19.41,0,0-12.89,9.7-49.22,33.8-11.16,7.41-23.72,18.03-32.13,27.95-12.31,14.51-19.77,28.62-22.89,35.13l-10.88-33.4s33.74-33.41,70.04-54.04Z"/><path class="cls-4" d="M115.16,82.41v-27.01c5.99,.21,11.8,.17,19.01-.83,8.73-1.21,27.78-5.93,40.22-10.81,39.99-15.69,65.41-28.25,65.41-28.25,4.26-2.09,9.66-1.71,15.54,1.68,2.08,1.2,4.09,2.74,6.02,4.49-10.01,5.57-27.56,14.77-52.21,25.54-34.53,15.09-93.98,35.18-93.98,35.18Z"/></g><g><g><path class="cls-17" d="M80.21,46.36l12.46-7.33c4.41-1.92,9.27-2.55,14.5-1.98,6.18,.68,12.87,3.06,19.91,7.07,.12,.07,.24,.13,.37,.2,31.95,18.45,57.85,67.94,57.85,110.54,0,22.47-7.21,38.53-18.71,45.99l-.03,.02c-.99,.64-11.67,6.52-11.67,6.52,0,0-16.75-2.62-27.44-8.8-31.95-18.45-57.85-67.94-57.85-110.54,0-18.02,10.62-41.7,10.62-41.7Z"/><path class="cls-3" d="M77.31,54.3l29.86-17.24c6.18,.68,12.87,3.06,19.91,7.07l-33.69,19.45-16.08-9.28Z"/></g><ellipse class="cls-20" cx="117.65" cy="126.79" rx="50.25" ry="88.82" transform="translate(-40.25 56.19) rotate(-23.05)"/><path class="cls-21" d="M88.82,54.62c-9.77,6.74-15.87,20.69-15.87,40.08,0,37.52,22.81,81.12,50.96,97.37,9.37,5.41,18.14,7.09,25.69,5.56-9.14,6.31-21.49,6.3-35.09-1.56-28.14-16.25-50.96-59.84-50.96-97.37,0-25.03,10.16-41.02,25.27-44.08Z"/><g><path class="cls-11" d="M88.82,54.62c4.82-.98,10.14-.63,15.79,1.15-6.38,6.75-10.21,17.85-10.21,32.37,0,33.47,20.35,72.35,45.45,86.84,8.06,4.65,15.62,6.21,22.19,5.09-2.75,7.86-7.03,13.82-12.44,17.56-7.54,1.53-16.32-.15-25.69-5.56-28.14-16.25-50.96-59.84-50.96-97.37,0-19.39,6.1-33.34,15.87-40.08Z"/><path class="cls-11" d="M139.85,174.97c-25.1-14.49-45.45-53.37-45.45-86.84,0-14.51,3.83-25.62,10.21-32.37,3.2,1.01,6.51,2.46,9.89,4.41,28.14,16.25,50.96,59.84,50.96,97.37,0,8.64-1.22,16.2-3.43,22.52-6.56,1.12-14.13-.44-22.19-5.09Z"/><path class="cls-8" d="M139.85,174.97c-25.1-14.49-45.45-53.37-45.45-86.84,0-14.51,3.83-25.62,10.21-32.37,3.2,1.01,6.51,2.46,9.89,4.41,28.14,16.25,50.96,59.84,50.96,97.37,0,8.64-1.22,16.2-3.43,22.52-6.56,1.12-14.13-.44-22.19-5.09Z"/></g></g><path class="cls-2" d="M123.67,150.48l39.28-15.53s-1.84-12.83-10.12-29.48c-7.98-16.05-14.02-23.06-14.02-23.06l-35.17,24.01,20.04,44.06Z"/><g><path class="cls-9" d="M103.63,106.42s.01,0,.02,0c2.74-1.48,6.27-1.29,10.12,.94,8.71,5.03,15.78,18.53,15.78,30.15,0,6.62-2.3,11.19-5.88,12.98-.14,.09-.26,.2-.42,.27-2.88,1.21-6.05,1.88-9.38,1.88-13.38,0-24.23-10.85-24.23-24.23,0-9.73,5.73-18.12,14-21.97Z"/><path class="cls-17" d="M89.36,128.52c0,7.56,4.6,16.35,10.27,19.62,5.67,3.27,10.27-.2,10.27-7.76s-4.6-16.35-10.27-19.62c-5.67-3.27-10.27,.2-10.27,7.76Z"/><path class="cls-20" d="M89.63,129.86c0,6.5,3.95,14.05,8.82,16.86,4.87,2.81,8.82-.17,8.82-6.67,0-6.5-3.95-14.05-8.82-16.86-4.87-2.81-8.82,.17-8.82,6.67Z"/><path class="cls-2" d="M90.14,130.51c0,5.67,3.45,12.25,7.7,14.71,4.25,2.45,7.7-.15,7.7-5.82,0-5.67-3.45-12.25-7.7-14.71-4.25-2.45-7.7,.15-7.7,5.82Z"/></g><path class="cls-2" d="M251.32,136.34l6.28,3.68c.84,.48,1.52-.03,1.52-1.15v-21.84c0-1.12-.68-2.42-1.52-2.91l-6.28-3.68c-.84-.48-1.52,.03-1.52,1.15v21.84c0,1.12,.68,2.42,1.52,2.91Z"/><g><path class="cls-9" d="M248.73,123.86c0-5.31,0-9.96,0-9.96l2.59-1.5,3.51,4.95s1.52,6.92,1.12,12.75c-.4,5.83-3.71,11.07-3.71,11.07l-6.1-3.45s2.59-7.21,2.59-13.86Z"/><path class="cls-24" d="M257.42,115.86v22.32s-5.18,2.99-5.18,2.99c0,0,2.59-7.21,2.59-13.86v-9.96s2.59-1.5,2.59-1.5Z"/><polygon class="cls-23" points="251.32 112.4 257.42 115.86 254.83 117.35 248.73 113.9 251.32 112.4"/></g></g><g><path class="cls-1" d="M312.48,68.91s-4.18-3.44-6.18-7.41c-1.95-3.86-2.45-5.75-3.32-7.77-.41-.96-1.12-1.34-1.12-.77-.39-.52-.66-.52-.95-.07-.72-.48-.76,.68-.91,1.43-.63-.71-.73,.41-.69,.86,.27,2.62,1.76,5.72,1.81,6.23,.04,.36-.78,.63-1.58-.16-.86-.85-.84-.96-1.51-1-.98-.07-.11,1.08,.62,2.04,.73,.97,2.54,2.85,4.36,3.65,1.81,.8,6.25,6.47,6.25,6.47l3.23-3.51Z"/><path class="cls-15" d="M353.34,189.85c-1.66,.4-3.78-.89-4.92-3.67-1.07-2.62-1.64-4.79-1.72-6.32-1.21-.94-1.25-2.76-1.21-3.59,.03-.66-.09-2.57,0-3.2,0-.17,4.61,.43,5.12,1.66,.86,2.09,3.2,7.91,3.83,9.89,.95,2.96,.86,4.76-1.09,5.23Z"/><path class="cls-15" d="M326.06,162.01s-.03,.03-.05,.05c.48,1.11,.66,3.3,.66,4.36,0,1.67-.2,1.94-1.89,2.62-1.32,.53-1.88-.09-2.22,.17-2.42,1.85-3.64,4.05-8.88,4.34-3.24,.18-3.09-1.95-1.11-3.71,1.61-1.44,3.36-3.11,4.85-4.68,1.1-1.16,2.3-2.49,3.37-3.67,1.43-1.58,5.52,.23,5.26,.52Z"/><path class="cls-17" d="M319.8,137.11c.49-1.39,.8-7.4-.17-12.63-1.3-7.06,.13-18.06,2.92-23.2,.88-1.62,2.94-4.6,4.56-5.81,4.49,3.68,20,3.06,20.11,3.18,3.01,3.47,3.6,5.26,4.52,7.45,3.37,7.98,1.89,15.86,.19,20.77-1.13,3.27-4.13,9.21-3.38,13.41,.68,3.8,2.36,8.73,3.02,12.59,1.22,7.13-1.05,14.3-.96,21.88-1.93,1.72-3.56,1.22-5.13-.03,0,0-5.4-13.92-5.77-20.49-.17-3.01,1.56-11.61,1.26-13.43-.82-5.02-1.94-6.14-3.43-12.04-1.61-6.38-2.46-11.36-2.46-11.42-1.52,9.53-5.08,13.34-5.16,18.1-.03,1.77,1.17,7.03-.34,11.53-1.83,5.48-1.83,10.05-3.49,15.12-1.5,1.71-4.95,1.07-5.18-.55,0-5.56-3.61-17.25-1.11-24.42Z"/><path class="cls-12" d="M344.79,67.82c-1.14,1.07-2.2,1.82-3.76,2.24-1.69,.46-5.3,6.01-6.43,4.38-.49-.7-.85-4.8-1.04-5.63,.49-.23,1.6-3.03,1.67-3.45,.13-.73,.88-1.41,.76-2.15-.18-1.02-.4-2.08-.5-3.13,1.5-.82,2.85-1.93,4.58-2.34,.95-.22,2.26-2.89,3.15-3.37-.6,2.28,.15,5.53,.41,6.85,.31,1.53,.54,2.18,1.62,3.73-.38,.11-.05,2.49-.45,2.87Z"/><path class="cls-2" d="M324.77,97.93c1.52-2.98,4.28-4.52,5.19-7.79,.96-3.41-.11-7.09-1.1-10.37-.11-.36,.19-.7,.54-.71,6.11-.24,11.56,2.22,17.38,3.7,.04,.01,.06,.04,.09,.06,.11-.08,.2-.17,.32-.24,.17-.11,.42,.12,.29,.29-1.64,2.16-3.03,4.27-3.41,6.93,.11,3.67,5.79,11.31,6.17,13.02-2.6,2.88-9.93,5.04-16.24,2.88-4.48-1.17-9.24-4.56-9.23-7.76Z"/><path class="cls-17" d="M304.75,65.59c2.09-1.95,3.19-2.22,3.19-2.22l3.81,3.54c2.08,1.93,4.93,3.74,7,5.93,2.89-3.57,7.16-8.41,8.6-10.45,2.29-3.24,8.13-2.31,8.13-2.31l-3.26,14.28s-6.03,5.44-9.96,8.2c-2.6,1.83-4.62,1.36-8.05-1.23-4.11-3.1-10.45-13.11-10.45-13.11,0,0-.21-1.52,.99-2.63Z"/><path class="cls-2" d="M334.35,68.22s2.59,1.95,6.64,1.23c4.05-.72-2.41,11.28-5.75,9.58-3.34-1.7-.89-10.82-.89-10.82Z"/><path class="cls-20" d="M328.24,68.82c1.24-2.33,3.11-4.74,4.84-6.7,.12-.13,3.32,1.13,4.01,.27,0,.95-.84,2.54-1.59,4.75-.51,1.49-2.07,6.4-1.18,9.87,3.45-3.97,10.07-11.44,10.94-12.04,1.24,1.19,4.02,2.49,5.52,3.39,.65,.39,1.11,1.71,1.09,2.08-.1,1.31-.53,8.31-2.05,10.76-1.26,1.56-3.83,3.89-4.56,6.82-.94,3.8,3.5,10.28,6.11,15.14-2.54,2.03-7.72,6.16-13.06,6.16-1.8,0-3.58-.3-5.28-.78-.09-1.95-.29-5.83-.79-6.96-.93,1.86-2.34,3.62-3.36,5.38-4.4-2.08-7.68-4.89-8.41-5.64,1.78-3.38,5.38-7.42,6.9-13.38,1.05-4.12-1.48-10.15-1.68-11.68-.42-3.15,1.67-5.73,2.56-7.42Z"/><path class="cls-17" d="M335.65,61.42c-1.9,2.05-3.98,5.18-3.98,5.18,0,0,.94,1.75,2.07,2.84-1.8,.71-3.29,2.23-3.29,2.23l3.85,5.34s1.06-7.88,1.88-11.19c.82-3.31,1.3-4.4,1.3-4.4,0,0-1.4-.18-1.82,0Z"/><path class="cls-17" d="M345.01,63.64s-3.07,2.4-4.98,4.45c-3.88,4.14-5.72,8.91-5.72,8.91l7.48-2.83s-.26-1.77-1.37-3.13c2.32-.05,7.57-2.63,7.3-4.51-.26-1.88-2.7-2.89-2.7-2.89Z"/><path class="cls-1" d="M336.35,63.57c4.61-.86,7.37-7.24,7.95-11.37,.62-4.48-1.84-8.35-5.35-8.6-2.26-.16-5.25,0-6.99,1.62-1.76,1.63-2.26,4.51-2.35,6.8-.15,3.48,1.61,12.52,6.74,11.56Z"/><path class="cls-10" d="M339.8,33.92c.35,2.09,.84,4.14,2.24,5.77,.06,.08,.15,.08,.24,.06,1.89,2.17,6.82,3.52,9.22,1.75,1.38-1.02,1.47-3.42,.44-4.51,.29-.21,.56-.43,.73-.64,.6-.76,.55-1.69-.2-2.31-.51-.42-1.34-.65-2.16-.65,.9-1.78,.96-3.97-1.28-4.77-1.94-.69-3.49,.77-4.51,2.55-.14-.39-.35-.75-.63-1.08-.92-1.07-2.12-.96-3.15-.1-1.38,1.16-1.2,2.27-.93,3.93Z"/><path class="cls-22" d="M339.56,39.95s2.41-2.81,5.52-1.66c3.11,1.15,.75,6.08,.75,6.08l-6.26-4.42Z"/><path class="cls-15" d="M329.88,49.3c2.19-.8,7.03-.29,9.1,.96,1.63,.98,4.09,6.36,4.09,9.25,1.32-1.23,3.54-3.62,4.39-5.97,1.42-3.91,.85-12.26-5.19-13.37-1.42-.26-3.13-.31-4.53-.12-1.66,.22-3.09-.63-4.7-.71-5.61-.26-6.51,6.01-3.15,9.96Z"/><path class="cls-1" d="M340.05,53.6s1.49-2.4,2.57-.92c1.08,1.49,.07,4.53-1.28,4.46-1.35-.07-1.28-3.54-1.28-3.54Z"/><path class="cls-17" d="M339,94.78l-1.04,2.81s1.96,.91,3.53,1.58c2.37,1.01,4.57,1.23,4.57,1.23l.53-2.3s-4.23-1.56-7.59-3.31Z"/><path class="cls-2" d="M334.31,79.07c-.02,.48-.37,.86-.78,.85-.41-.01-.74-.42-.72-.9,.02-.48,.37-.86,.78-.85,.41,.01,.74,.42,.72,.9Z"/><path class="cls-2" d="M334.34,88.13c-.02,.48-.37,.86-.78,.85-.41-.01-.74-.42-.72-.9,.02-.48,.37-.86,.78-.85,.41,.02,.74,.42,.72,.9Z"/><path class="cls-2" d="M333.21,97.61c-.02,.48-.37,.86-.78,.85-.41-.01-.74-.42-.72-.9,.02-.48,.37-.86,.78-.85,.41,.01,.74,.42,.72,.9Z"/><path class="cls-16" d="M325.77,92.27s1.19-.04,2.66-.31c-.31,1.29-.83,2.57-.83,2.57h-2.97s1.14-2.26,1.14-2.26Z"/><g><polygon class="cls-5" points="323.29 76.04 322.27 76.61 330.12 95.03 331.14 94.46 323.29 76.04"/><polygon class="cls-11" points="308.73 68.8 309.75 68.22 323.29 76.04 322.27 76.61 308.73 68.8"/><polygon class="cls-15" points="316.46 90.88 332.6 100.2 323.24 78.23 307.09 68.91 316.46 90.88"/><polygon class="cls-10" points="324.46 77.54 323.24 78.23 332.6 100.2 333.82 99.52 324.46 77.54"/><polygon class="cls-19" points="307.09 68.91 308.31 68.22 324.46 77.54 323.24 78.23 307.09 68.91"/></g><path class="cls-1" d="M334.78,92.93c-.25,.18-1.35-1.51-2.94-2.85-1.59-1.34-1.54-1.9-2.23-2.85-.69-.96-1.15-.38-.87,.87,.28,1.26,.87,3.04,.87,3.04,0,0-1.4,.12-3.05-1.29-1.65-1.41-3.62-1.86-3.4,0,.21,1.87,2.17,4.76,5.28,5.62,3.11,.86,5.91,1.25,5.91,1.25l.43-3.78Z"/><path class="cls-17" d="M333.45,91.25s3.55,.36,8.11,.71c1.26,.1,4.01-.23,5.03,0-.81-4.45-2.18-10.4-1.79-12.04,1.13-4.66,2.58-8.05,5.96-11.57,2.42,.16,8.67,3.38,5.01,9.89,.77,4.36-.08,8.16-.96,13.12-.57,3.21-.72,3.97-2.26,7.11-1.13,2.3-4.88,1.14-7.9,.71-5.25-.75-11.5-2.46-11.5-2.46,0,0-.69-.56-.55-3.1,.07-1.25,.85-2.37,.85-2.37Z"/></g><g><g><path class="cls-6" d="M9.32,104.02h0c.52-.21,1.16-.16,1.87,.25,.92,.53,1.75,1.54,2.32,2.72,.57-.52,1.4-.57,2.32-.04,1.73,1,3.13,3.67,3.13,5.97,0,1.2-.38,2.05-.98,2.46h0s-4.45,3.13-4.45,3.13l-2.38,1.31-4.15-14.52,2.33-1.29Z"/><path class="cls-11" d="M5.68,107.94c0-2.3,1.4-3.36,3.13-2.36,.92,.53,1.75,1.54,2.32,2.72,.57-.52,1.4-.57,2.32-.04,1.73,1,3.13,3.67,3.13,5.97,0,1.2-.38,2.05-.98,2.46h0s-4.45,3.13-4.45,3.13l-4.36-8.09c-.67-1.15-1.09-2.53-1.09-3.79Z"/></g><g><path class="cls-6" d="M26.68,22.59h0c.52-.21,1.16-.16,1.87,.25,.92,.53,1.75,1.54,2.32,2.72,.57-.52,1.4-.57,2.32-.04,1.73,1,3.13,3.67,3.13,5.97,0,1.2-.38,2.05-.98,2.46h0s-4.45,3.13-4.45,3.13l-2.38,1.31-4.15-14.52,2.33-1.29Z"/><path class="cls-11" d="M23.05,26.51c0-2.3,1.4-3.36,3.13-2.36,.92,.53,1.75,1.54,2.32,2.72,.57-.52,1.4-.57,2.32-.04,1.73,1,3.13,3.67,3.13,5.97,0,1.19-.38,2.05-.98,2.46h0s-4.45,3.13-4.45,3.13l-4.36-8.09c-.67-1.15-1.09-2.53-1.09-3.79Z"/></g><g><path class="cls-17" d="M24.33,173.17h0c.52-.21,1.16-.16,1.87,.25,.92,.53,1.75,1.54,2.32,2.72,.57-.52,1.4-.57,2.32-.04,1.73,1,3.13,3.67,3.13,5.97,0,1.2-.38,2.05-.98,2.46,0,0,0,0,0,0l-4.45,3.13-2.38,1.31-4.15-14.52,2.33-1.29Z"/><path class="cls-20" d="M20.7,177.1c0-2.3,1.4-3.36,3.13-2.36,.92,.53,1.75,1.54,2.32,2.72,.57-.52,1.4-.57,2.32-.04,1.73,1,3.13,3.67,3.13,5.97,0,1.19-.38,2.05-.98,2.46h0s-4.45,3.13-4.45,3.13l-4.36-8.09c-.67-1.15-1.09-2.53-1.09-3.79Z"/></g><g><path class="cls-17" d="M64.37,135.06v.02c.89-.37,1.98-.29,3.17,.4,1.56,.9,2.96,2.62,3.93,4.61,.97-.87,2.37-.97,3.93-.07,2.93,1.69,5.3,6.23,5.3,10.13,0,2.03-.64,3.48-1.67,4.18,0,0,0,0,0,0l-7.55,5.3-4.04,2.22-7.04-24.61,3.95-2.19Z"/><path class="cls-20" d="M58.2,141.71c0-3.9,2.37-5.7,5.3-4.01,1.56,.9,2.96,2.62,3.93,4.61,.97-.87,2.37-.97,3.93-.07,2.93,1.69,5.3,6.23,5.3,10.13,0,2.03-.64,3.48-1.67,4.18,0,0,0,0,0,0l-7.55,5.3-7.4-13.71c-1.13-1.95-1.85-4.29-1.85-6.43Z"/></g><g><path class="cls-6" d="M48.96,193.56l5.1,2.95v-10.96s-2.24-1.45-2.24-1.45l-.54-.81,3.53-2.1s.04-.02,.06-.04l.09-.06c.45-.26,1.04-.24,1.68,.12,1.42,.82,2.58,3.04,2.58,4.93v8.73s9.52,5.5,9.52,5.5c1.18,.68,2.14,2.52,2.14,4.08,0,.75-.24,1.27-.6,1.56l.02,.02-.48,.28c.62,.86,1.05,1.97,1.05,3,0,.83-.29,1.36-.72,1.62l.03,.03-.66,.4c.78,.87,1.36,2.16,1.36,3.35,0,.75-.23,1.26-.59,1.55v.02s-.84,.51-.84,.51c.82,.87,1.43,2.19,1.43,3.41,0,.75-.23,1.29-.59,1.6l-.02,.03s-.05,.03-.07,.04l-4.05,2.39-1.98-2.27,2.02-1.64-17.23-9.95v-16.85Z"/><polygon class="cls-24" points="45.9 208.64 50.76 211.45 50.76 191.37 45.9 188.56 45.9 208.64"/><polygon class="cls-23" points="42.14 190.8 45.9 188.56 50.76 191.37 47 193.6 42.14 190.8"/><polygon class="cls-6" points="47 196.83 50.76 194.6 55.63 197.41 51.86 199.64 47 196.83"/><g><path class="cls-11" d="M50.3,198.74v-13.34c0-1.89,1.16-2.77,2.58-1.95,1.42,.82,2.58,3.04,2.58,4.93v8.73s9.52,5.5,9.52,5.5c1.18,.68,2.14,2.52,2.14,4.08,0,1.05-.45,1.68-1.09,1.8,.64,.86,1.09,2.01,1.09,3.06,0,1.31-.68,1.97-1.58,1.79,.9,.85,1.58,2.31,1.58,3.61,0,1.38-.76,2.05-1.75,1.73,.98,.82,1.75,2.37,1.75,3.75,0,1.57-.96,2.29-2.14,1.62l-19.79-11.42v-16.85s5.1,2.94,5.1,2.94Z"/><polygon class="cls-9" points="42.14 210.88 47 213.68 47 193.6 42.14 190.8 42.14 210.88"/><path class="cls-6" d="M63.51,207.35c.21,0,.42-.11,.53-.31,.17-.29,.07-.67-.22-.84l-7.17-4.14c-.29-.17-.67-.07-.84,.22-.17,.29-.07,.67,.22,.84l7.17,4.14c.1,.06,.2,.08,.31,.08Z"/><path class="cls-6" d="M63.51,212.86c.21,0,.42-.11,.53-.31,.17-.29,.07-.67-.22-.84l-7.17-4.14c-.29-.17-.67-.07-.84,.22-.17,.29-.07,.67,.22,.84l7.17,4.14c.1,.06,.2,.08,.31,.08Z"/><path class="cls-6" d="M63.51,218.36c.21,0,.42-.11,.53-.31,.17-.29,.07-.67-.22-.84l-7.17-4.14c-.29-.17-.67-.07-.84,.22-.17,.29-.07,.67,.22,.84l7.17,4.14c.1,.06,.2,.08,.31,.08Z"/></g></g><g><path class="cls-6" d="M27.33,139.6l5.1,2.95v-10.96s-2.24-1.45-2.24-1.45l-.54-.81,3.53-2.1s.04-.02,.06-.04l.09-.06c.45-.26,1.04-.24,1.68,.13,1.42,.82,2.58,3.04,2.58,4.93v8.73s9.52,5.5,9.52,5.5c1.18,.68,2.14,2.52,2.14,4.08,0,.75-.24,1.27-.6,1.56l.02,.02-.48,.28c.62,.86,1.05,1.97,1.05,3,0,.83-.29,1.36-.72,1.62l.03,.03-.66,.4c.78,.87,1.36,2.16,1.36,3.35,0,.75-.23,1.26-.59,1.55v.02s-.84,.51-.84,.51c.82,.86,1.43,2.19,1.43,3.41,0,.75-.23,1.29-.59,1.59l-.02,.03s-.05,.03-.07,.04l-4.05,2.39-1.98-2.27,2.02-1.64-17.23-9.95v-16.85Z"/><polygon class="cls-24" points="24.27 154.68 29.13 157.48 29.13 137.4 24.27 134.59 24.27 154.68"/><polygon class="cls-23" points="20.51 136.83 24.27 134.59 29.13 137.4 25.37 139.64 20.51 136.83"/><polygon class="cls-6" points="25.37 142.87 29.13 140.63 33.99 143.44 30.23 145.67 25.37 142.87"/><g><path class="cls-11" d="M28.67,144.78v-13.34c0-1.89,1.16-2.77,2.58-1.95,1.42,.82,2.58,3.04,2.58,4.93v8.73s9.52,5.5,9.52,5.5c1.18,.68,2.14,2.52,2.14,4.08,0,1.05-.45,1.68-1.09,1.8,.64,.86,1.09,2.01,1.09,3.06,0,1.31-.68,1.97-1.58,1.79,.9,.85,1.58,2.31,1.58,3.61,0,1.38-.76,2.05-1.75,1.73,.98,.82,1.75,2.37,1.75,3.75,0,1.57-.96,2.29-2.14,1.62l-19.79-11.42v-16.85s5.1,2.95,5.1,2.95Z"/><polygon class="cls-9" points="20.51 156.91 25.37 159.72 25.37 139.64 20.51 136.83 20.51 156.91"/><path class="cls-6" d="M41.88,153.38c.21,0,.42-.11,.53-.31,.17-.29,.07-.67-.22-.84l-7.17-4.14c-.29-.17-.67-.07-.84,.22-.17,.29-.07,.67,.22,.84l7.17,4.14c.1,.06,.2,.08,.31,.08Z"/><path class="cls-6" d="M41.88,158.89c.21,0,.42-.11,.53-.31,.17-.29,.07-.67-.22-.84l-7.17-4.14c-.29-.17-.67-.07-.84,.22-.17,.29-.07,.67,.22,.84l7.17,4.14c.1,.06,.2,.08,.31,.08Z"/><path class="cls-6" d="M41.88,164.4c.21,0,.42-.11,.53-.31,.17-.29,.07-.67-.22-.84l-7.17-4.14c-.29-.17-.67-.07-.84,.22-.17,.29-.07,.67,.22,.84l7.17,4.14c.1,.06,.2,.08,.31,.08Z"/></g></g><g><path class="cls-17" d="M9.75,59.6l7.29,4.21v-15.65s-3.2-2.08-3.2-2.08l-.78-1.16,5.04-3s.06-.03,.09-.05l.13-.08c.65-.37,1.48-.35,2.39,.18,2.03,1.17,3.69,4.34,3.69,7.04v12.48s13.61,7.86,13.61,7.86c1.68,.97,3.05,3.59,3.05,5.83,0,1.07-.34,1.81-.86,2.23l.03,.03-.68,.41c.88,1.22,1.5,2.82,1.5,4.29,0,1.18-.42,1.95-1.03,2.32l.04,.04-.95,.57c1.12,1.24,1.94,3.09,1.94,4.79,0,1.07-.33,1.8-.85,2.21l.02,.02-1.22,.73c1.17,1.24,2.04,3.13,2.04,4.88,0,1.07-.33,1.85-.84,2.28v.02s-.03,.03-.03,.03c-.03,.03-.07,.04-.11,.06l-5.79,3.41-2.83-3.25,2.89-2.35-24.62-14.21v-24.06Z"/><polygon class="cls-24" points="5.38 81.14 12.32 85.15 12.32 56.46 5.38 52.45 5.38 81.14"/><polygon class="cls-23" points="0 55.65 5.38 52.45 12.32 56.46 6.94 59.65 0 55.65"/><polygon class="cls-18" points="6.94 64.27 12.32 61.08 19.26 65.09 13.89 68.28 6.94 64.27"/><g><path class="cls-20" d="M11.66,67v-19.06c0-2.7,1.66-3.96,3.69-2.79,2.03,1.17,3.69,4.34,3.69,7.04v12.48s13.61,7.86,13.61,7.86c1.68,.97,3.05,3.59,3.05,5.83,0,1.5-.65,2.4-1.56,2.57,.92,1.23,1.56,2.87,1.56,4.38,0,1.87-.97,2.82-2.26,2.55,1.29,1.22,2.26,3.3,2.26,5.16,0,1.98-1.09,2.93-2.5,2.48,1.41,1.17,2.5,3.39,2.5,5.36,0,2.24-1.37,3.28-3.05,2.31L4.37,86.86v-24.06s7.29,4.21,7.29,4.21Z"/><polygon class="cls-9" points="0 84.33 6.94 88.34 6.94 59.65 0 55.65 0 84.33"/><path class="cls-17" d="M30.53,79.29c.3,0,.6-.16,.76-.44,.24-.42,.1-.96-.32-1.2l-10.24-5.91c-.42-.25-.95-.1-1.2,.32-.24,.42-.1,.96,.32,1.2l10.24,5.91c.14,.08,.29,.12,.44,.12Z"/><path class="cls-17" d="M30.53,87.16c.3,0,.6-.16,.76-.44,.24-.42,.1-.96-.32-1.2l-10.24-5.91c-.42-.25-.95-.1-1.2,.32-.24,.42-.1,.96,.32,1.2l10.24,5.91c.14,.08,.29,.12,.44,.12Z"/><path class="cls-17" d="M30.53,95.02c.3,0,.6-.16,.76-.44,.24-.42,.1-.96-.32-1.2l-10.24-5.91c-.42-.24-.95-.1-1.2,.32-.24,.42-.1,.96,.32,1.2l10.24,5.91c.14,.08,.29,.12,.44,.12Z"/></g></g><g><path class="cls-17" d="M59.68,98.89l5.05,2.92v-10.86s-2.22-1.44-2.22-1.44l-.54-.8,3.5-2.08s.04-.02,.06-.04l.09-.06c.45-.25,1.03-.24,1.66,.12,1.41,.81,2.56,3.01,2.56,4.88v8.65s9.44,5.45,9.44,5.45c1.16,.67,2.12,2.49,2.12,4.05,0,.74-.23,1.26-.59,1.54l.02,.02-.47,.28c.61,.85,1.04,1.95,1.04,2.97,0,.82-.29,1.35-.72,1.61l.03,.03-.66,.39c.78,.86,1.35,2.14,1.35,3.32,0,.74-.23,1.25-.59,1.54v.02s-.83,.51-.83,.51c.81,.86,1.42,2.17,1.42,3.38,0,.74-.23,1.28-.58,1.58l-.02,.03s-.05,.03-.07,.04l-4.01,2.37-1.96-2.25,2-1.63-17.07-9.86v-16.69Z"/><polygon class="cls-24" points="56.65 113.83 61.47 116.61 61.47 96.71 56.65 93.93 56.65 113.83"/><polygon class="cls-23" points="52.92 96.15 56.65 93.93 61.47 96.71 57.74 98.93 52.92 96.15"/><polygon class="cls-18" points="57.74 102.13 61.47 99.92 66.28 102.7 62.55 104.91 57.74 102.13"/><g><path class="cls-20" d="M61.01,104.02v-13.22c0-1.87,1.15-2.74,2.56-1.93,1.41,.81,2.56,3.01,2.56,4.88v8.65s9.44,5.45,9.44,5.45c1.16,.67,2.12,2.49,2.12,4.05,0,1.04-.45,1.66-1.08,1.78,.63,.86,1.08,1.99,1.08,3.04,0,1.29-.67,1.95-1.57,1.77,.89,.85,1.57,2.29,1.57,3.58,0,1.37-.76,2.03-1.73,1.72,.98,.81,1.73,2.35,1.73,3.72,0,1.55-.95,2.27-2.12,1.6l-19.6-11.32v-16.69s5.05,2.92,5.05,2.92Z"/><polygon class="cls-9" points="52.92 116.04 57.74 118.82 57.74 98.93 52.92 96.15 52.92 116.04"/><path class="cls-17" d="M74.09,112.55c.21,0,.41-.11,.53-.3,.17-.29,.07-.66-.22-.83l-7.1-4.1c-.29-.17-.66-.07-.83,.22-.17,.29-.07,.66,.22,.83l7.1,4.1c.1,.06,.2,.08,.3,.08Z"/><path class="cls-17" d="M74.09,118.01c.21,0,.41-.11,.53-.3,.17-.29,.07-.66-.22-.83l-7.1-4.1c-.29-.17-.66-.07-.83,.22-.17,.29-.07,.66,.22,.83l7.1,4.1c.1,.06,.2,.08,.3,.08Z"/><path class="cls-17" d="M74.09,123.46c.21,0,.41-.11,.53-.3,.17-.29,.07-.66-.22-.83l-7.1-4.1c-.29-.17-.66-.07-.83,.22-.17,.29-.07,.66,.22,.83l7.1,4.1c.1,.06,.2,.08,.3,.08Z"/></g></g><g><polygon class="cls-11" points="78.32 192.99 115.89 214.68 115.89 188.62 78.32 166.93 78.32 192.99"/><polygon class="cls-5" points="115.89 188.62 93.76 197.67 78.32 166.93 115.89 188.62"/><polygon class="cls-5" points="115.89 214.68 115.89 214 100.41 190.81 99.26 190.81 114.72 213.96 115.89 214.68"/><polygon class="cls-5" points="78.85 193.3 91.94 185.39 91.43 184.38 78.32 192.31 78.32 192.99 78.85 193.3"/><polygon class="cls-6" points="115.89 188.62 117.09 187.95 117.09 214.01 115.89 214.68 115.89 188.62"/><polygon class="cls-11" points="78.32 166.93 79.52 166.26 117.09 187.95 115.89 188.62 78.32 166.93"/></g><g><polygon class="cls-20" points="46.18 58.58 83.75 80.27 83.75 54.2 46.18 32.51 46.18 58.58"/><polygon class="cls-17" points="83.75 54.2 61.62 63.25 46.18 32.51 83.75 54.2"/><polygon class="cls-17" points="83.75 80.27 83.75 79.58 68.27 56.39 67.13 56.39 82.58 79.54 83.75 80.27"/><polygon class="cls-17" points="46.72 58.88 59.81 50.97 59.3 49.96 46.18 57.89 46.18 58.58 46.72 58.88"/><polygon class="cls-17" points="83.75 54.2 84.95 53.53 84.95 79.59 83.75 80.27 83.75 54.2"/><polygon class="cls-20" points="46.18 32.51 47.38 31.84 84.95 53.53 83.75 54.2 46.18 32.51"/></g></g><g><path class="cls-6" d="M282.97,288.56l7.24,4.18-13.47,7.78-3.38-1.72-1.38-.09-.08,5.83s0,.07,0,.1v.16c0,.74,.43,1.45,1.34,1.97,2.01,1.16,5.56,1.02,7.89-.33l10.73-6.2,13.52,7.8c1.67,.96,4.61,.84,6.54-.27,.92-.53,1.39-1.19,1.49-1.84h.04s.01-.78,.01-.78c1.49,.15,3.17-.1,4.43-.83,1.02-.59,1.47-1.33,1.48-2.04h.06s.02-1.09,.02-1.09c1.63,.35,3.62,.14,5.08-.71,.92-.53,1.39-1.18,1.48-1.83h.03s.02-1.4,.02-1.4c1.64,.39,3.71,.21,5.21-.66,.92-.53,1.42-1.2,1.54-1.86h.02s0-.05,0-.05c0-.04,0-.08,0-.12l.06-6.68-4.2-.82-.59,3.65-24.46-14.12-20.71,11.95Z"/><polygon class="cls-24" points="299.33 274.1 306.23 278.08 281.55 292.33 274.65 288.35 299.33 274.1"/><polygon class="cls-9" points="274.73 282.14 274.65 288.35 281.55 292.33 281.62 286.12 274.73 282.14"/><polygon class="cls-6" points="285.59 283.83 285.52 290.04 292.42 294.02 292.49 287.81 285.59 283.83"/><g><path class="cls-11" d="M290.28,286.53l-16.4,9.47c-2.33,1.34-2.58,3.39-.57,4.56,2.01,1.16,5.56,1.02,7.89-.33l10.74-6.2,13.52,7.8c1.67,.96,4.61,.84,6.54-.27,1.29-.75,1.74-1.75,1.44-2.62,1.52,.18,3.25-.08,4.54-.83,1.61-.93,1.94-2.24,1.07-3.21,1.69,.5,3.96,.31,5.57-.62,1.7-.98,1.98-2.39,.89-3.38,1.71,.63,4.15,.47,5.86-.51,1.93-1.11,2.14-2.81,.47-3.77l-28.08-16.21-20.71,11.95,7.24,4.18Z"/><polygon class="cls-23" points="299.41 267.89 306.31 271.87 281.62 286.12 274.73 282.14 299.41 267.89"/><path class="cls-6" d="M310.24,296.66c.15,.26,.16,.59,0,.87-.24,.42-.77,.56-1.19,.32l-10.18-5.87c-.42-.24-.56-.77-.32-1.19,.24-.42,.77-.56,1.19-.32l10.18,5.87c.14,.08,.25,.19,.32,.32Z"/><path class="cls-6" d="M317,292.75c.15,.26,.16,.59,0,.87-.24,.42-.77,.56-1.19,.32l-10.18-5.87c-.42-.24-.56-.77-.32-1.19,.24-.42,.77-.56,1.19-.32l10.18,5.87c.14,.08,.25,.19,.32,.32Z"/><path class="cls-6" d="M323.77,288.84c.15,.26,.16,.59,0,.87-.24,.42-.77,.56-1.19,.32l-10.18-5.87c-.42-.24-.56-.77-.32-1.19,.24-.42,.77-.56,1.19-.32l10.18,5.87c.14,.08,.25,.19,.32,.32Z"/></g></g><g><path class="cls-5" d="M334.39,272.81l-7.24,4.18,13.47,7.78,3.38-1.72,1.38-.09,.08,5.83s0,.07,0,.1v.16c0,.74-.43,1.45-1.34,1.97-2.01,1.16-5.56,1.02-7.89-.33l-10.74-6.2-13.52,7.8c-1.67,.96-4.61,.84-6.54-.27-.92-.53-1.39-1.19-1.49-1.84h-.04s-.01-.78-.01-.78c-1.49,.15-3.17-.1-4.43-.83-1.02-.59-1.47-1.33-1.48-2.04h-.06s-.02-1.08-.02-1.08c-1.63,.34-3.62,.14-5.08-.71-.92-.53-1.39-1.18-1.48-1.83h-.03s-.02-1.4-.02-1.4c-1.64,.39-3.71,.21-5.21-.66-.92-.53-1.42-1.2-1.54-1.86h-.02s0-.05,0-.05c0-.04,0-.08,0-.12l-.06-6.68,4.2-.82,.59,3.65,24.46-14.12,20.71,11.95Z"/><polygon class="cls-24" points="318.03 258.35 311.13 262.33 335.81 276.58 342.71 272.6 318.03 258.35"/><polygon class="cls-9" points="342.63 266.39 342.71 272.6 335.81 276.58 335.73 270.37 342.63 266.39"/><polygon class="cls-6" points="331.76 268.07 331.84 274.29 324.94 278.27 324.86 272.06 331.76 268.07"/><g><path class="cls-11" d="M327.07,270.78l16.4,9.47c2.33,1.34,2.58,3.39,.57,4.56-2.01,1.16-5.56,1.02-7.89-.33l-10.73-6.2-13.52,7.8c-1.67,.96-4.61,.84-6.54-.27-1.29-.75-1.74-1.75-1.44-2.62-1.52,.17-3.25-.08-4.54-.83-1.61-.93-1.94-2.24-1.07-3.21-1.69,.5-3.96,.31-5.57-.62-1.7-.98-1.98-2.39-.89-3.38-1.71,.63-4.15,.47-5.86-.51-1.93-1.11-2.14-2.81-.47-3.77l28.08-16.21,20.71,11.95-7.24,4.18Z"/><polygon class="cls-23" points="317.95 252.14 311.05 256.12 335.73 270.37 342.63 266.39 317.95 252.14"/><path class="cls-6" d="M307.12,280.9c-.15,.26-.16,.59,0,.87,.24,.42,.77,.56,1.19,.32l10.18-5.87c.42-.24,.56-.77,.32-1.19-.24-.42-.77-.56-1.19-.32l-10.18,5.87c-.14,.08-.25,.19-.32,.32Z"/><path class="cls-6" d="M300.35,277c-.15,.26-.16,.59,0,.87,.24,.42,.77,.56,1.19,.32l10.18-5.87c.42-.24,.56-.77,.32-1.19-.24-.42-.77-.56-1.19-.32l-10.18,5.87c-.14,.08-.25,.19-.32,.32Z"/><path class="cls-6" d="M293.59,273.09c-.15,.26-.16,.59,0,.87,.24,.42,.77,.56,1.19,.32l10.18-5.87c.42-.24,.56-.77,.32-1.19-.24-.42-.77-.56-1.19-.32l-10.18,5.87c-.14,.08-.25,.19-.32,.32Z"/></g></g><g><polygon class="cls-20" points="271.79 209.97 320.88 238.31 291.39 255.34 242.3 227 271.79 209.97"/><polygon class="cls-17" points="320.88 238.31 276.47 233.39 271.79 209.97 320.88 238.31"/><polygon class="cls-17" points="279.08 226.35 243.42 227.65 242.3 227 243.47 226.32 278.27 225.06 279.08 226.35"/><polygon class="cls-17" points="287.08 232.61 292.16 254.89 291.39 255.34 290.67 254.93 285.61 232.66 287.08 232.61"/><polygon class="cls-17" points="291.38 255.34 291.41 257.13 320.9 240.11 320.88 238.31 291.38 255.34"/><polygon class="cls-14" points="242.29 227 242.32 228.79 291.41 257.13 291.38 255.34 242.29 227"/></g><g><polygon class="cls-11" points="274.64 197.45 323.72 225.79 294.23 242.81 245.15 214.47 274.64 197.45"/><polygon class="cls-5" points="323.72 225.79 279.32 220.87 274.64 197.45 323.72 225.79"/><polygon class="cls-5" points="281.93 213.83 246.27 215.12 245.15 214.47 246.32 213.8 281.12 212.53 281.93 213.83"/><polygon class="cls-5" points="289.93 220.09 295.01 242.37 294.23 242.81 293.52 242.41 288.46 220.13 289.93 220.09"/><polygon class="cls-6" points="294.23 242.82 294.26 244.61 323.75 227.59 323.72 225.79 294.23 242.82"/><polygon class="cls-5" points="245.14 214.48 245.17 216.27 294.26 244.61 294.23 242.82 245.14 214.48"/></g><g><polygon class="cls-11" points="207.17 224.14 158.08 252.48 187.57 269.51 236.66 241.17 207.17 224.14"/><polygon class="cls-5" points="158.08 252.48 202.48 247.56 207.17 224.14 158.08 252.48"/><polygon class="cls-5" points="199.87 240.52 235.53 241.82 236.66 241.17 235.48 240.49 200.69 239.23 199.87 240.52"/><polygon class="cls-5" points="191.87 246.78 186.8 269.06 187.57 269.51 188.29 269.1 193.35 246.83 191.87 246.78"/><polygon class="cls-6" points="187.58 269.51 187.55 271.31 158.06 254.28 158.08 252.48 187.58 269.51"/><polygon class="cls-5" points="236.66 241.17 236.63 242.96 187.55 271.31 187.58 269.51 236.66 241.17"/></g><g><path class="cls-15" d="M218.71,271.69s.22,1.82,.78,3.71c.57,1.9-.13,4.55-.13,4.55,0,0-.41,1.17-2.17,1.51-1.64,.32-2.96-.07-2.96-.07,0,0-1.61,1.95-3.72,3.44-2.11,1.49-6.75,2.65-8.01,2.45-2.04-.31-3.13-1.9-2.97-2.92,.16-1.02,2.56-3.86,4.53-5.09,1.28-.8,4.19-3.5,5.06-4.44,1.45-1.56,2.51-3.27,2.51-3.27l7.08,.14Z"/><path class="cls-15" d="M249.01,287.14s1.09,4.04,.95,6.38c-.14,2.34-.69,2.9-1.4,3.69-.71,.79-1.54,.45-1.54,.45,0,0-.33,4.83-2.61,6.78-2.29,1.95-6.44,2.14-8.34,1.43-1.9-.71-.65-4.16,1.21-7.55,1.86-3.39,4.24-7.03,4.84-10.09,4.56-.63,6.89-1.08,6.89-1.08Z"/><path class="cls-13" d="M227.63,150.2s-3.67,1.9-5.62,4.43c-1.8,2.33-3.63,4.86-4.31,6.83-1.88,5.39-4.2,9.13-4.2,9.13,0,0-14.83,2.28-17.02,3.21-2.18,.94,.41,7.12,.41,7.12,0,0,18.66,1.9,21.91-.51,2.53-1.88,15.6-25.78,15.6-25.78l-6.78-4.43Z"/><path class="cls-24" d="M221.5,190.75s-5.9,15.06-6.82,21.15c-.91,6.09-2.75,15.32-3.85,23-1.1,7.68-1.09,15.16-.57,22.65,.2,2.98,1.29,10.75,.72,14.98,.65,2.75,7.08,3.09,7.85-.1,.47-1.98,5.42-19.52,5.92-25.03,.5-5.52-.8-9.47-.8-9.47,0,0,8.04-17.21,10.86-23.99,2.82-6.77,.9-15.17,.9-15.17l-14.2-8.02Z"/><path class="cls-9" d="M242.64,196.99s2.89,4.09,5.19,11.28c1.62,5.06,1.36,17.18,1.36,17.18,0,0,.42,11.94-.35,16.07-.77,4.13-.7,4.97-.7,4.97,0,0,3.31,9.9,2.8,21.6-.51,11.7-1.47,20.1-1.47,20.1,0,0-.65,2.21-3.66,2.52-2.74,.28-4.74-1.62-4.74-1.62,0,0-5.02-24.78-6.88-30.43-1.86-5.65-2.54-12.16-2.54-12.16l-3.8-27.82s-7.52-4.91-3.67-17.29c2.41-7.75,18.46-4.39,18.46-4.39Z"/><path class="cls-21" d="M251.92,180.05c-2.93,7.9-5.83,14.99-6.96,23.44-.07,.5-.28,.83-.77,1.01-3.31,1.23-5.79,2.5-9.19,1.91-6.26-1.09-11.93-3.98-16.2-8.45,.9-3.99,3.39-14.17,2.17-24.63-.4-3.48,.13-7.42,1.39-10.75,1.39-3.68,3.18-5.74,7.04-8.81,8.06-1.16,18.09,4.18,21.82,11.59,2.13,4.23,2.26,10.46,.7,14.69Z"/><path class="cls-12" d="M231.74,149.17s.77,5.1-1.1,6.87c-1.87,1.77-1.88,5.4,1.86,6.62,4.54,1.48,7.74-1.79,10.56-4.04-1.22-2.59-1.82-2.57-1.82-9.84,0-5.91-9.51,.4-9.51,.4Z"/><path class="cls-13" d="M248.54,161.46s4.1,1.57,7.03,7.14c2.84,5.4,6.43,16.01,7.44,20.36,1.37,5.87,.85,6.82-.13,8.41-1.74,2.82-4.84,5.62-8.03,7.57-5.24,3.19-9.06,3.45-9.06,3.45,0,0-.93-.69-.93-6.64,.28-.27,2.3-1.92,3.4-2.98,3.32-3.19,5.08-5.05,5.08-5.05,0,0-4.04-5.7-8.01-12-5.37-12.56,3.21-20.25,3.21-20.25Z"/><path class="cls-17" d="M228.55,163.11c-.87-1.04-.79-2.59-.79-2.59l1.52,.41s.41,1.02,.53,1.87c0,0,1.15-.43,1.67-.59,1.39-.45,1.29,1.3,1.29,1.3,0,0-1.13,.31-2.12,.54-.12,.62-.33,1.3-.61,2.01-.25,.62-.88,.92-1.41,.69-.84-.36-1.01-1.07-.86-1.89,.08-.42,.49-1.12,.79-1.75Z"/><path class="cls-13" d="M241.41,153.61s-.88,3.08-3.22,4.85c-2.83,2.13-8.15,2.48-8.15,3.93,1.54,0,1.85,.09,1.85,1.2,0,2.09,.61,2.57,.61,2.57,0,0,3.84-1.09,6.61-2.25,3.47-1.44,5.04-6.24,5.04-6.24,0,0-.68-4.26-2.74-4.07Z"/><path class="cls-13" d="M230.04,153.77s-2.25,2.44-3.21,3.57c-.96,1.12-.4,3.19-.88,4.13-.48,.93-.7,1.56-.7,1.56,0,0,2.01-.41,2.39-1.56,.39-1.16,2.39,.93,2.39,.93l1.42-1.16s-2.14-1.37-1.42-2.83c.72-1.46,1.93-3.39,1.93-3.39l-1.93-1.24Z"/><g><path class="cls-1" d="M237.08,153.97c-5.57,4.53-10.4,1.02-11.54-4.87-.54-2.81-.46-8.91,1.54-12.34,2.66-4.56,10.07-3.28,12.88-.17,4.85,5.36,2.44,13.06-2.87,17.38Z"/><path class="cls-15" d="M241.25,150.75c-1.18-.47-2.41-2.87-2.66-4.22-.96,0-2.06-.39-2.6-.79-1.17-.89-1.66-2.39-1.69-3.88-1.66,.92-4.24,.55-5.65-.38-.34-.22-.44-.62-.26-.98,.11-.22,.25-.43,.39-.64-1.6-.02-3.22-.43-4.57-1.04-1.89-.86-5.56-3.75-3.43-5.38,.9-.69,2.94,.19,3.97,.39-.52-.77-1.08-1.7-.8-2.65,.4-1.31,2.94,.22,3.98,.7,3.58-1.01,7.73-2.31,11.23-.5,2.12,1.09,3.47,3.33,3.19,5.59,2.7,.06,4.31,2.26,3.82,5.24-.35,2.16-3.5,7.11-4.94,8.53Z"/><path class="cls-1" d="M237.04,147.1s1.62-2.46,3.07-.59c1.44,1.87-1.52,3.69-1.52,3.69l-1.55-3.1Z"/></g><path class="cls-17" d="M225.89,171.89c.93-4.08,1.55-5.11,2.33-6.21,.24-.34,1.21,0,1.19,.41-.2,4.15-.23,6.96,.12,13.62,.35,6.82,.17,11.7,.17,11.7,0,0-2.54,2.76-3.88,3.3-1.95-3.03-2.1-6.32-2.1-6.32,0,0,1.19-12.19,2.17-16.5Z"/><g><polygon class="cls-20" points="191.49 198.12 242.29 227.45 242.29 192.21 191.49 162.88 191.49 198.12"/><polygon class="cls-17" points="242.29 192.2 212.37 204.44 191.49 162.87 242.29 192.2"/><polygon class="cls-17" points="242.29 227.45 242.29 226.53 221.36 195.17 219.82 195.17 240.71 226.47 242.29 227.45"/><polygon class="cls-17" points="192.21 198.54 209.92 187.84 209.23 186.48 191.49 197.2 191.49 198.12 192.21 198.54"/><polygon class="cls-17" points="242.29 192.2 243.92 191.3 243.92 226.54 242.29 227.45 242.29 192.2"/><polygon class="cls-20" points="191.49 162.87 193.11 161.97 243.92 191.3 242.29 192.2 191.49 162.87"/></g><path class="cls-1" d="M246.27,201.32c-.58,.12-2.35,0-2.35,0v1.71s-1.31,1.79-3.64,.96c-1.6-.57-3.29-.88-2.72,.46-.93,.1-.77,.69-.31,1.21-.97,0-.51,.89-.21,1.49-.35,.23-.35,.72,0,1.13,1.31,1.55,1.93,1.63,3.55,1.9,1.08,.18,2.19,.22,3.04,0,2.4-.63,2.77-1.82,4.53-3.62,1.76-1.79,.61-5.74-1.89-5.24Z"/><path class="cls-1" d="M191.49,175.29v1.8s.86,.85,2.12,2.21c.76,.83,.62,1.09,.31,1.41-.17,.17-.79-.3-.79-.3,0,0,.72,1.12,.55,1.45-.24,.46-1.13-.19-1.13-.19,0,0,.56,.69,.07,1.1-.31,.27-.93-.48-1.86-1.1-1.14-.76-1.71-3.01-.98-4.57,.55-1.2,1.72-1.8,1.72-1.8Z"/></g></g></g></svg>